<svg xmlns="http://www.w3.org/2000/svg" width="24" height="24" viewBox="0 0 24 24" fill="none">
  <path d="M1.92001 0.232788C1.5381 0.232788 1.17183 0.379953 0.901777 0.641909C0.631725 0.903864 0.480011 1.25915 0.480011 1.62961C0.480011 2.00007 0.631725 2.35536 0.901777 2.61732C1.17183 2.87927 1.5381 3.02644 1.92001 3.02644H3.67681L4.11601 4.73336C4.12037 4.75301 4.12517 4.77257 4.13041 4.79203L6.08593 12.3768L4.80001 13.6228C2.98561 15.3828 4.27009 18.3915 6.83617 18.3915H19.2C19.5819 18.3915 19.9482 18.2444 20.2182 17.9824C20.4883 17.7204 20.64 17.3652 20.64 16.9947C20.64 16.6242 20.4883 16.2689 20.2182 16.007C19.9482 15.745 19.5819 15.5979 19.2 15.5979H6.83617L8.27617 14.201H17.76C18.0274 14.2009 18.2894 14.1286 18.5168 13.9921C18.7441 13.8557 18.9279 13.6606 19.0474 13.4286L23.3674 5.04765C23.477 4.83474 23.5288 4.59818 23.5178 4.36042C23.5067 4.12265 23.4333 3.89156 23.3043 3.68909C23.1753 3.48661 22.9952 3.31945 22.7809 3.20348C22.5666 3.08751 22.3254 3.02657 22.08 3.02644H6.64321L6.19681 1.29018C6.1188 0.988126 5.93898 0.720013 5.68591 0.528434C5.43284 0.336855 5.12103 0.232796 4.80001 0.232788H1.92001Z" fill="#1D1D1D"/>
  <path d="M20.64 21.8836C20.64 22.4393 20.4124 22.9722 20.0074 23.3651C19.6023 23.7581 19.0529 23.9788 18.48 23.9788C17.9071 23.9788 17.3577 23.7581 16.9527 23.3651C16.5476 22.9722 16.32 22.4393 16.32 21.8836C16.32 21.3279 16.5476 20.7949 16.9527 20.402C17.3577 20.0091 17.9071 19.7883 18.48 19.7883C19.0529 19.7883 19.6023 20.0091 20.0074 20.402C20.4124 20.7949 20.64 21.3279 20.64 21.8836Z" fill="#1D1D1D"/>
  <path d="M6.96002 23.9788C7.53289 23.9788 8.08229 23.7581 8.48737 23.3651C8.89245 22.9722 9.12002 22.4393 9.12002 21.8836C9.12002 21.3279 8.89245 20.7949 8.48737 20.402C8.08229 20.0091 7.53289 19.7883 6.96002 19.7883C6.38715 19.7883 5.83775 20.0091 5.43267 20.402C5.02759 20.7949 4.80002 21.3279 4.80002 21.8836C4.80002 22.4393 5.02759 22.9722 5.43267 23.3651C5.83775 23.7581 6.38715 23.9788 6.96002 23.9788Z" fill="#1D1D1D"/>
</svg>