<svg xmlns="http://www.w3.org/2000/svg" width="23" height="23" viewBox="0 0 23 23" fill="none">
  <path fill-rule="evenodd" clip-rule="evenodd" d="M6.965 0.608236C8.138 0.554236 8.512 0.542236 11.5 0.542236C14.488 0.542236 14.862 0.555236 16.034 0.608236C17.206 0.661236 18.006 0.848236 18.706 1.11924C19.439 1.39624 20.104 1.82924 20.654 2.38924C21.214 2.93824 21.646 3.60224 21.922 4.33624C22.194 5.03624 22.38 5.83624 22.434 7.00624C22.488 8.18124 22.5 8.55524 22.5 11.5422C22.5 14.5302 22.487 14.9042 22.434 16.0772C22.381 17.2472 22.194 18.0472 21.922 18.7472C21.646 19.4813 21.2133 20.1464 20.654 20.6962C20.104 21.2562 19.439 21.6882 18.706 21.9642C18.006 22.2362 17.206 22.4222 16.036 22.4762C14.862 22.5302 14.488 22.5422 11.5 22.5422C8.512 22.5422 8.138 22.5292 6.965 22.4762C5.795 22.4232 4.995 22.2362 4.295 21.9642C3.56092 21.6882 2.89582 21.2555 2.346 20.6962C1.78638 20.1469 1.35331 19.4821 1.077 18.7482C0.806 18.0482 0.62 17.2482 0.566 16.0782C0.512 14.9032 0.5 14.5292 0.5 11.5422C0.5 8.55424 0.513 8.18024 0.566 7.00824C0.619 5.83624 0.806 5.03624 1.077 4.33624C1.35372 3.60232 1.78712 2.93755 2.347 2.38824C2.89604 1.82874 3.56047 1.39568 4.294 1.11924C4.994 0.848236 5.794 0.662236 6.964 0.608236H6.965ZM15.945 2.58824C14.785 2.53524 14.437 2.52424 11.5 2.52424C8.563 2.52424 8.215 2.53524 7.055 2.58824C5.982 2.63724 5.4 2.81624 5.012 2.96724C4.499 3.16724 4.132 3.40424 3.747 3.78924C3.38205 4.14429 3.10118 4.57652 2.925 5.05424C2.774 5.44224 2.595 6.02424 2.546 7.09724C2.493 8.25724 2.482 8.60524 2.482 11.5422C2.482 14.4792 2.493 14.8272 2.546 15.9872C2.595 17.0602 2.774 17.6422 2.925 18.0302C3.101 18.5072 3.382 18.9402 3.747 19.2952C4.102 19.6602 4.535 19.9412 5.012 20.1172C5.4 20.2682 5.982 20.4472 7.055 20.4962C8.215 20.5492 8.562 20.5602 11.5 20.5602C14.438 20.5602 14.785 20.5492 15.945 20.4962C17.018 20.4472 17.6 20.2682 17.988 20.1172C18.501 19.9172 18.868 19.6802 19.253 19.2952C19.618 18.9402 19.899 18.5072 20.075 18.0302C20.226 17.6422 20.405 17.0602 20.454 15.9872C20.507 14.8272 20.518 14.4792 20.518 11.5422C20.518 8.60524 20.507 8.25724 20.454 7.09724C20.405 6.02424 20.226 5.44224 20.075 5.05424C19.875 4.54124 19.638 4.17424 19.253 3.78924C18.8979 3.42431 18.4657 3.14345 17.988 2.96724C17.6 2.81624 17.018 2.63724 15.945 2.58824ZM10.095 14.9332C10.8797 15.2599 11.7534 15.304 12.5669 15.058C13.3805 14.812 14.0834 14.2912 14.5556 13.5845C15.0278 12.8778 15.2401 12.0291 15.156 11.1833C15.072 10.3376 14.697 9.54721 14.095 8.94724C13.7112 8.56371 13.2472 8.27005 12.7363 8.08738C12.2255 7.90472 11.6804 7.8376 11.1405 7.89085C10.6006 7.94411 10.0792 8.11641 9.6138 8.39537C9.14845 8.67432 8.75074 9.05298 8.4493 9.50409C8.14786 9.95519 7.95019 10.4675 7.87052 11.0042C7.79084 11.5409 7.83115 12.0885 7.98854 12.6078C8.14593 13.127 8.41648 13.6048 8.78072 14.007C9.14496 14.4091 9.59382 14.7254 10.095 14.9332ZM7.502 7.54424C8.02702 7.01921 8.65032 6.60274 9.3363 6.3186C10.0223 6.03446 10.7575 5.88821 11.5 5.88821C12.2425 5.88821 12.9777 6.03446 13.6637 6.3186C14.3497 6.60274 14.973 7.01921 15.498 7.54424C16.023 8.06926 16.4395 8.69256 16.7236 9.37853C17.0078 10.0645 17.154 10.7997 17.154 11.5422C17.154 12.2847 17.0078 13.02 16.7236 13.7059C16.4395 14.3919 16.023 15.0152 15.498 15.5402C14.4377 16.6006 12.9995 17.1963 11.5 17.1963C10.0005 17.1963 8.56234 16.6006 7.502 15.5402C6.44166 14.4799 5.84597 13.0418 5.84597 11.5422C5.84597 10.0427 6.44166 8.60457 7.502 7.54424ZM18.408 6.73024C18.5381 6.60751 18.6423 6.45992 18.7143 6.29621C18.7863 6.1325 18.8248 5.95601 18.8274 5.77717C18.83 5.59833 18.7967 5.42078 18.7295 5.25505C18.6622 5.08931 18.5624 4.93875 18.436 4.81228C18.3095 4.6858 18.1589 4.58599 17.9932 4.51875C17.8275 4.45151 17.6499 4.41821 17.4711 4.42082C17.2922 4.42343 17.1157 4.46189 16.952 4.53393C16.7883 4.60598 16.6407 4.71013 16.518 4.84024C16.2793 5.09327 16.1486 5.42936 16.1537 5.77717C16.1588 6.12498 16.2992 6.45712 16.5452 6.70308C16.7911 6.94904 17.1233 7.08946 17.4711 7.09454C17.8189 7.09961 18.155 6.96893 18.408 6.73024Z" fill="#1D1D1D"/>
</svg>