<svg xmlns="http://www.w3.org/2000/svg" width="23" height="19" viewBox="0 0 23 19" fill="none">
  <path d="M22.853 2.50251C22.018 2.87251 21.121 3.12251 20.178 3.23551C21.151 2.6533 21.8789 1.73697 22.226 0.657507C21.3118 1.2005 20.3113 1.5827 19.268 1.78751C18.5664 1.03837 17.6371 0.541833 16.6243 0.374981C15.6116 0.208129 14.5721 0.380298 13.6672 0.864759C12.7624 1.34922 12.0428 2.11887 11.6202 3.05421C11.1975 3.98955 11.0955 5.03826 11.33 6.03751C9.47769 5.9445 7.66563 5.46306 6.01143 4.62441C4.35722 3.78577 2.89784 2.60867 1.728 1.16951C1.328 1.85951 1.098 2.65951 1.098 3.51151C1.09756 4.2785 1.28644 5.03375 1.64788 5.71024C2.00933 6.38673 2.53216 6.96354 3.17 7.38951C2.43028 7.36597 1.70688 7.16609 1.06 6.80651V6.86651C1.05993 7.94225 1.43204 8.98488 2.11319 9.8175C2.79434 10.6501 3.74257 11.2214 4.797 11.4345C4.11079 11.6202 3.39134 11.6476 2.693 11.5145C2.9905 12.4401 3.57 13.2495 4.35037 13.8294C5.13074 14.4093 6.07292 14.7307 7.045 14.7485C5.39484 16.0439 3.35689 16.7466 1.259 16.7435C0.887384 16.7436 0.516079 16.7219 0.147003 16.6785C2.27648 18.0477 4.75534 18.7743 7.287 18.7715C15.857 18.7715 20.542 11.6735 20.542 5.51751C20.542 5.31751 20.537 5.11551 20.528 4.91551C21.4393 4.25648 22.2259 3.4404 22.851 2.50551L22.853 2.50251Z" fill="#1D1D1D"/>
</svg>